<?xml version="1.0" encoding="utf-8"?>
<!-- Generator: Adobe Illustrator 24.2.1, SVG Export Plug-In . SVG Version: 6.00 Build 0)  -->
<svg version="1.1" id="Layer_1" xmlns="http://www.w3.org/2000/svg" xmlns:xlink="http://www.w3.org/1999/xlink" x="0px" y="0px"
	 viewBox="0 0 207 131" style="enable-background:new 0 0 207 131;" xml:space="preserve">
<style type="text/css">
	.st0{fill:url(#SVGID_1_);}
	.st1{fill:url(#SVGID_2_);}
	.st2{fill:url(#SVGID_3_);}
</style>
<g>
	<linearGradient id="SVGID_1_" gradientUnits="userSpaceOnUse" x1="99.064" y1="34.6968" x2="174.2838" y2="34.6968">
		<stop  offset="0" style="stop-color:#ED5F79"/>
		<stop  offset="1" style="stop-color:#F7B517"/>
	</linearGradient>
	<path class="st0" d="M107.18,51.93c6-11.64,18.09-19.27,31.61-19.27c9.52,0,18.8,3.91,25.46,10.74l2.5,2.56l7.53-14.09l-1.53-1.37
		c-9.35-8.41-21.41-13.04-33.96-13.04c-9.65,0-19.04,2.73-27.16,7.89c-4.81,3.06-9.05,6.89-12.57,11.31L107.18,51.93z"/>
	<linearGradient id="SVGID_2_" gradientUnits="userSpaceOnUse" x1="15.2307" y1="66.5967" x2="175.8931" y2="66.5967">
		<stop  offset="0" style="stop-color:#ED5F79"/>
		<stop  offset="1" style="stop-color:#F7B517"/>
	</linearGradient>
	<path class="st1" d="M139.79,119c-16.81,0-32.73-8.55-42.13-22.46c0,0-3.09-5.2-3.67-6.39L70.88,46.61L32.42,119H15.23L70.88,14.19
		l38.21,71.96c6.38,10.88,18.14,17.64,30.7,17.64c9.83,0,19.32-4.13,26.03-11.33l2.5-2.68l7.58,14.19l-1.47,1.37
		C164.98,114.15,152.68,119,139.79,119z"/>
	
		<linearGradient id="SVGID_3_" gradientUnits="userSpaceOnUse" x1="-1271.597" y1="348.2453" x2="-1196.3773" y2="348.2453" gradientTransform="matrix(6.123234e-17 1 -1 6.123234e-17 530.1761 1298.7461)">
		<stop  offset="0" style="stop-color:#ED5F79"/>
		<stop  offset="1" style="stop-color:#F7B517"/>
	</linearGradient>
	<path class="st2" d="M181.77,45.73c-3.21,1.3-6.43,2.58-9.65,3.85c2.88,5.16,4.52,11.07,4.52,17.29c0,6.13-1.63,12.15-4.62,17.45
		c2.7,1.35,5.38,2.72,8.07,4.09c1.82,0.93,3.62,1.89,5.44,2.83c4.08-7.42,6.31-15.76,6.31-24.36c0-8.06-1.93-15.93-5.57-23.04
		C183.94,44.83,182.21,45.56,181.77,45.73z"/>
</g>
</svg>
